<?xml version="1.0" encoding="UTF-8" standalone="no"?>
<svg
   xmlns:dc="http://purl.org/dc/elements/1.1/"
   xmlns:cc="http://creativecommons.org/ns#"
   xmlns:rdf="http://www.w3.org/1999/02/22-rdf-syntax-ns#"
   xmlns:svg="http://www.w3.org/2000/svg"
   xmlns="http://www.w3.org/2000/svg"
   xmlns:sodipodi="http://sodipodi.sourceforge.net/DTD/sodipodi-0.dtd"
   xmlns:inkscape="http://www.inkscape.org/namespaces/inkscape"
   viewBox="0 0 20 20"
   version="1.1"
   id="svg24"
   sodipodi:docname="heading.svg"
   inkscape:version="1.0.1 (3bc2e813f5, 2020-09-07)">
  <metadata
     id="metadata30">
    <rdf:RDF>
      <cc:Work
         rdf:about="">
        <dc:format>image/svg+xml</dc:format>
        <dc:type
           rdf:resource="http://purl.org/dc/dcmitype/StillImage" />
        <dc:title></dc:title>
      </cc:Work>
    </rdf:RDF>
  </metadata>
  <defs
     id="defs28" />
  <sodipodi:namedview
     pagecolor="#ffffff"
     bordercolor="#666666"
     borderopacity="1"
     objecttolerance="10"
     gridtolerance="10"
     guidetolerance="10"
     inkscape:pageopacity="0"
     inkscape:pageshadow="2"
     inkscape:window-width="1920"
     inkscape:window-height="1011"
     id="namedview26"
     showgrid="false"
     inkscape:zoom="42.25"
     inkscape:cx="10"
     inkscape:cy="10"
     inkscape:window-x="0"
     inkscape:window-y="0"
     inkscape:window-maximized="1"
     inkscape:current-layer="svg24" />
  <path
     d="M 4,8.5 H 9 V 4 C 9,3.4477153 9.4477153,3 10,3 h 0.5 c 0.552285,0 1,0.4477153 1,1 v 11.5 c 0,0.552285 -0.447715,1 -1,1 H 10 c -0.5522847,0 -1,-0.447715 -1,-1 V 11 H 4 v 4.5 c 0,0.552285 -0.4477153,1 -1,1 H 2.5 c -0.5522847,0 -1,-0.447715 -1,-1 V 4 c 0,-0.5522847 0.4477153,-1 1,-1 H 3 c 0.5522847,0 1,0.4477153 1,1 z"
     id="path22"
     sodipodi:nodetypes="ccssssssssccssssssssc" />
</svg>
